<svg width="540" height="151" viewBox="0 0 540 151" fill="none" xmlns="http://www.w3.org/2000/svg">
    <g clip-path="url(#clip0_5_41)">
    <path d="M187.688 32.296C184.445 41.6827 181.331 50.3867 178.344 58.408C175.443 66.344 172.584 73.896 169.768 81.064C166.952 88.232 164.136 95.1013 161.32 101.672C158.589 108.157 155.773 114.6 152.872 121H141.224C138.323 114.6 135.464 108.157 132.648 101.672C129.917 95.1013 127.101 88.232 124.2 81.064C121.384 73.896 118.483 66.344 115.496 58.408C112.509 50.3867 109.437 41.6827 106.28 32.296H119.976C124.584 45.7787 129.107 58.7493 133.544 71.208C137.981 83.6667 142.547 95.3573 147.24 106.28C151.933 95.4427 156.499 83.7947 160.936 71.336C165.373 58.792 169.853 45.7787 174.376 32.296H187.688ZM211.144 121H199.24V54.44H211.144V121ZM205.128 42.408C202.995 42.408 201.16 41.7253 199.624 40.36C198.173 38.9093 197.448 36.9893 197.448 34.6C197.448 32.2107 198.173 30.3333 199.624 28.968C201.16 27.5173 202.995 26.792 205.128 26.792C207.261 26.792 209.053 27.5173 210.504 28.968C212.04 30.3333 212.808 32.2107 212.808 34.6C212.808 36.9893 212.04 38.9093 210.504 40.36C209.053 41.7253 207.261 42.408 205.128 42.408ZM247.103 112.424C251.967 112.424 255.551 111.784 257.855 110.504C260.244 109.224 261.439 107.176 261.439 104.36C261.439 101.459 260.287 99.1547 257.983 97.448C255.679 95.7413 251.882 93.8213 246.591 91.688C244.031 90.664 241.556 89.64 239.167 88.616C236.863 87.5067 234.858 86.2267 233.151 84.776C231.444 83.3253 230.079 81.576 229.055 79.528C228.031 77.48 227.519 74.9627 227.519 71.976C227.519 66.088 229.695 61.4373 234.047 58.024C238.399 54.5253 244.33 52.776 251.839 52.776C253.716 52.776 255.594 52.904 257.471 53.16C259.348 53.3307 261.098 53.5867 262.719 53.928C264.34 54.184 265.748 54.4827 266.943 54.824C268.223 55.1653 269.204 55.464 269.887 55.72L267.711 65.96C266.431 65.2773 264.426 64.5947 261.695 63.912C258.964 63.144 255.679 62.76 251.839 62.76C248.511 62.76 245.61 63.4427 243.135 64.808C240.66 66.088 239.423 68.136 239.423 70.952C239.423 72.4027 239.679 73.6827 240.191 74.792C240.788 75.9013 241.642 76.9253 242.751 77.864C243.946 78.7173 245.396 79.528 247.103 80.296C248.81 81.064 250.858 81.8747 253.247 82.728C256.404 83.9227 259.22 85.1173 261.695 86.312C264.17 87.4213 266.26 88.744 267.967 90.28C269.759 91.816 271.124 93.6933 272.063 95.912C273.002 98.0453 273.471 100.691 273.471 103.848C273.471 109.992 271.167 114.643 266.559 117.8C262.036 120.957 255.551 122.536 247.103 122.536C241.215 122.536 236.607 122.024 233.279 121C229.951 120.061 227.69 119.336 226.495 118.824L228.671 108.584C230.036 109.096 232.212 109.864 235.199 110.888C238.186 111.912 242.154 112.424 247.103 112.424ZM334.948 87.848C334.948 80.0827 333.028 74.1093 329.188 69.928C325.348 65.7467 320.228 63.656 313.828 63.656C310.244 63.656 307.428 63.784 305.38 64.04C303.417 64.296 301.839 64.5947 300.644 64.936V106.92C302.095 108.115 304.185 109.267 306.916 110.376C309.647 111.485 312.633 112.04 315.876 112.04C319.289 112.04 322.191 111.443 324.58 110.248C327.055 108.968 329.06 107.261 330.596 105.128C332.132 102.909 333.241 100.349 333.924 97.448C334.607 94.4613 334.948 91.2613 334.948 87.848ZM347.364 87.848C347.364 92.8827 346.681 97.5333 345.316 101.8C344.036 106.067 342.116 109.736 339.556 112.808C336.996 115.88 333.839 118.269 330.084 119.976C326.415 121.683 322.191 122.536 317.412 122.536C313.572 122.536 310.159 122.024 307.172 121C304.271 119.976 302.095 118.995 300.644 118.056V144.68H288.74V56.488C291.556 55.8053 295.055 55.08 299.236 54.312C303.503 53.4587 308.409 53.032 313.956 53.032C319.076 53.032 323.684 53.8427 327.78 55.464C331.876 57.0853 335.375 59.3893 338.276 62.376C341.177 65.3627 343.396 69.032 344.932 73.384C346.553 77.6507 347.364 82.472 347.364 87.848ZM388.691 53.032C389.715 53.032 390.867 53.1173 392.147 53.288C393.512 53.3733 394.835 53.544 396.115 53.8C397.395 53.9707 398.547 54.184 399.571 54.44C400.68 54.6107 401.491 54.7813 402.003 54.952L399.955 65.32C399.016 64.9787 397.438 64.5947 395.219 64.168C393.086 63.656 390.312 63.4 386.899 63.4C384.68 63.4 382.462 63.656 380.243 64.168C378.11 64.5947 376.702 64.8933 376.019 65.064V121H364.115V57.256C366.931 56.232 370.43 55.2933 374.611 54.44C378.792 53.5013 383.486 53.032 388.691 53.032ZM409.778 87.848C409.778 81.96 410.631 76.84 412.338 72.488C414.045 68.0507 416.306 64.3813 419.122 61.48C421.938 58.5787 425.181 56.4027 428.85 54.952C432.519 53.5013 436.274 52.776 440.114 52.776C449.074 52.776 455.943 55.592 460.722 61.224C465.501 66.7707 467.89 75.2613 467.89 86.696C467.89 87.208 467.89 87.8907 467.89 88.744C467.89 89.512 467.847 90.2373 467.762 90.92H422.194C422.706 97.832 424.711 103.08 428.21 106.664C431.709 110.248 437.17 112.04 444.594 112.04C448.775 112.04 452.274 111.699 455.09 111.016C457.991 110.248 460.167 109.523 461.618 108.84L463.282 118.824C461.831 119.592 459.271 120.403 455.602 121.256C452.018 122.109 447.922 122.536 443.314 122.536C437.511 122.536 432.477 121.683 428.21 119.976C424.029 118.184 420.573 115.752 417.842 112.68C415.111 109.608 413.063 105.981 411.698 101.8C410.418 97.5333 409.778 92.8827 409.778 87.848ZM455.474 81.32C455.559 75.944 454.194 71.5493 451.378 68.136C448.647 64.6373 444.85 62.888 439.986 62.888C437.255 62.888 434.823 63.4427 432.69 64.552C430.642 65.576 428.893 66.9413 427.442 68.648C425.991 70.3547 424.839 72.3173 423.986 74.536C423.218 76.7547 422.706 79.016 422.45 81.32H455.474ZM524.798 121C523.859 119.123 522.707 117.032 521.342 114.728C519.977 112.424 518.483 110.077 516.862 107.688C515.241 105.213 513.577 102.781 511.87 100.392C510.163 98.0027 508.499 95.7413 506.878 93.608C505.257 95.7413 503.593 98.0453 501.886 100.52C500.179 102.909 498.515 105.341 496.894 107.816C495.358 110.205 493.907 112.552 492.542 114.856C491.177 117.16 490.025 119.208 489.086 121H476.798C479.785 115.197 483.326 109.309 487.422 103.336C491.603 97.2773 495.742 91.5173 499.838 86.056L477.822 54.44H491.262L507.134 77.736L523.134 54.44H535.806L514.302 85.288C518.398 90.8347 522.579 96.7227 526.846 102.952C531.198 109.096 534.867 115.112 537.854 121H524.798Z" fill="white"/>
    <path d="M46 89L46 31" stroke="white" stroke-width="11"/>
    <path d="M45.5577 89L88.3211 120.727" stroke="white" stroke-width="11"/>
    <path d="M46.0604 89.1002L2.99999 120.304" stroke="white" stroke-width="11"/>
    </g>
    <defs>
    <clipPath id="clip0_5_41">
    <rect width="540" height="151" rx="2" fill="white"/>
    </clipPath>
    </defs>
</svg>
